HIERARCHY
ROOT root
{
	OFFSET 0.000000 0.000000 0.000000
	CHANNELS 6 Xposition Yposition Zposition Zrotation Yrotation Xrotation
	JOINT lhip
	{
		OFFSET 0.058581 -0.082280 -0.017664
		CHANNELS 3 Zrotation Yrotation Xrotation
		JOINT lknee
		{
			OFFSET 0.043451 -0.386469 0.008037
			CHANNELS 3 Zrotation Yrotation Xrotation
			JOINT lankle
			{
				OFFSET -0.014790 -0.426874 -0.037428
				CHANNELS 3 Zrotation Yrotation Xrotation
				JOINT ltoe
				{
					OFFSET 0.041054 -0.060286 0.122042
					CHANNELS 3 Zrotation Yrotation Xrotation
					End Site
					{
						OFFSET 0.000000 0.000000 0.000000
					}
				}
			}
		}
	}
	JOINT rhip
	{
		OFFSET -0.060310 -0.090513 -0.013543
		CHANNELS 3 Zrotation Yrotation Xrotation
		JOINT rknee
		{
			OFFSET -0.043257 -0.383688 -0.004843
			CHANNELS 3 Zrotation Yrotation Xrotation
			JOINT rankle
			{
				OFFSET 0.019056 -0.420046 -0.034562
				CHANNELS 3 Zrotation Yrotation Xrotation
				JOINT rtoe
				{
					OFFSET -0.034840 -0.062106 0.130323
					CHANNELS 3 Zrotation Yrotation Xrotation
					End Site
					{
						OFFSET 0.000000 0.000000 0.000000
					}
				}
			}
		}
	}
	JOINT lowerback
	{
		OFFSET 0.004439 0.124404 -0.038385
		CHANNELS 3 Zrotation Yrotation Xrotation
		JOINT upperback
		{
			OFFSET 0.004488 0.137956 0.026820
			CHANNELS 3 Zrotation Yrotation Xrotation
			JOINT chest
			{
				OFFSET -0.002265 0.056032 0.002855
				CHANNELS 3 Zrotation Yrotation Xrotation
				JOINT lowerneck
				{
					OFFSET -0.013390 0.211636 -0.033468
					CHANNELS 3 Zrotation Yrotation Xrotation
					JOINT upperneck
					{
						OFFSET 0.010113 0.088937 0.050410
						CHANNELS 3 Zrotation Yrotation Xrotation
						End Site
						{
							OFFSET 0.000000 0.000000 0.000000
						}
					}
				}
				JOINT lclavicle
				{
					OFFSET 0.071702 0.114000 -0.018898
					CHANNELS 3 Zrotation Yrotation Xrotation
					JOINT lshoulder
					{
						OFFSET 0.122921 0.045205 -0.019046
						CHANNELS 3 Zrotation Yrotation Xrotation
						JOINT lelbow
						{
							OFFSET 0.255332 -0.015649 -0.022946
							CHANNELS 3 Zrotation Yrotation Xrotation
							JOINT lwrist
							{
								OFFSET 0.265709 0.012698 -0.007375
								CHANNELS 3 Zrotation Yrotation Xrotation
								End Site
								{
									OFFSET 0.000000 0.000000 0.000000
								}
							}
						}
					}
				}
				JOINT rclavicle
				{
					OFFSET -0.082954 0.112472 -0.023707
					CHANNELS 3 Zrotation Yrotation Xrotation
					JOINT rshoulder
					{
						OFFSET -0.113228 0.046853 -0.008472
						CHANNELS 3 Zrotation Yrotation Xrotation
						JOINT relbow
						{
							OFFSET -0.260127 -0.014369 -0.031269
							CHANNELS 3 Zrotation Yrotation Xrotation
							JOINT rwrist
							{
								OFFSET -0.269108 0.006794 -0.006027
								CHANNELS 3 Zrotation Yrotation Xrotation
								End Site
								{
									OFFSET 0.000000 0.000000 0.000000
								}
							}
						}
					}
				}
			}
		}
	}
}
MOTION
Frames: 10
Frame Time: 0.033333
-0.033183 -0.561039 0.993993 -173.562006 0.437533 84.250918 -1.051414 2.364101 7.866055 -3.613196 -10.765617 2.332477 1.386443 5.411979 -11.228916 0.000000 -0.000000 0.000000 0.584651 -3.788626 0.287310 0.882127 -7.317524 17.866891 1.601975 -10.547166 -14.587532 0.000000 -0.000000 0.000000 0.904554 -0.718834 11.214475 2.047768 -1.571279 -0.529375 0.424623 -1.563151 2.748879 2.242855 1.153977 7.588422 -3.267154 -2.820511 17.180104 -27.083231 1.977313 4.079773 -55.035254 -6.540755 8.154529 9.418191 -21.298805 4.277844 -3.597356 -3.848218 -5.911867 27.778671 3.829450 2.197770 53.080872 8.639684 12.384582 -13.824784 22.726936 -9.458442 2.677223 3.760088 -7.773401 
-0.030000 -0.559874 0.993322 -174.098893 0.358123 84.295677 -1.038186 2.131476 7.775988 -3.564137 -10.379623 2.635710 1.639812 5.786684 -11.545327 0.000000 -0.000000 0.000000 0.703840 -3.434551 0.207545 0.954985 -7.289812 18.051935 1.575136 -10.500994 -14.913529 0.000000 -0.000000 0.000000 0.946356 -0.498605 11.063268 1.750175 -1.278481 -0.340276 0.215046 -1.503722 2.836160 2.372201 1.425430 7.601502 -3.229674 -2.445467 17.010286 -26.772104 2.190053 4.191818 -54.549079 -5.864189 7.958457 9.157979 -21.340363 4.162110 -3.525596 -3.626509 -5.910612 27.760528 3.894027 2.225912 53.441543 8.864544 12.485364 -14.096644 23.922910 -9.277633 2.633473 3.996360 -7.878719 
-0.026752 -0.558322 0.992898 -174.638795 0.303130 84.267260 -1.091778 2.130292 7.179139 -3.548047 -10.219893 4.085220 2.012521 6.382931 -12.351354 0.000000 -0.000000 0.000000 0.690405 -3.432557 0.317613 1.237341 -7.029367 18.090503 1.557166 -10.088252 -15.087458 0.000000 -0.000000 0.000000 1.062797 -0.276276 11.138539 1.493312 -1.159057 -0.543811 0.016960 -1.419954 2.987306 2.431666 1.638459 7.651106 -3.180041 -2.675317 17.187637 -26.715187 2.882725 3.948463 -54.477902 -5.308221 7.611971 9.557263 -21.371621 4.108228 -4.006400 -3.615092 -5.558965 27.663580 3.670225 2.023374 53.757373 8.862904 12.979765 -14.042435 25.007924 -8.116352 2.905120 3.943658 -7.518662 
-0.020749 -0.555740 0.991910 -175.516854 0.315110 84.036366 -1.001345 1.737789 5.918066 -3.904944 -9.623832 7.392488 2.195271 6.964092 -13.230160 0.000000 -0.000000 0.000000 1.228462 -3.306991 0.744925 1.097459 -6.154241 17.918354 1.298737 -9.991027 -15.426003 0.000000 -0.000000 0.000000 0.896261 -0.169669 11.343691 1.456536 -1.057093 -0.557741 -0.064922 -1.096000 3.284899 2.459785 1.949648 7.365450 -3.178215 -2.360062 17.300662 -27.152347 3.294180 3.931898 -53.971773 -4.735721 7.411806 9.351070 -21.947513 3.691146 -3.850638 -3.603111 -6.193289 27.907712 3.725567 2.129291 54.009585 9.121357 13.314973 -14.131727 26.202083 -7.949273 3.140317 4.244281 -7.623619 
-0.017240 -0.554384 0.991351 -176.042896 0.363279 83.808021 -0.929988 1.363738 4.837953 -4.146473 -9.035489 10.182038 2.529325 7.405271 -14.050783 0.000000 -0.000000 0.000000 1.614636 -3.236565 1.004951 0.993082 -5.578929 17.998651 1.234635 -9.882563 -15.658499 0.000000 -0.000000 0.000000 1.116421 0.151485 11.734299 1.333957 -0.900508 -0.740989 -0.259656 -1.113967 3.397835 2.513206 1.752570 7.135103 -3.218990 -2.532934 17.682207 -27.288348 3.308449 4.127238 -53.828044 -4.546093 7.313084 9.377215 -22.451183 3.627877 -3.509870 -3.627258 -6.112860 28.213038 3.613391 2.010035 54.188473 9.000189 13.476968 -14.237781 26.779493 -7.446628 2.845724 4.309318 -7.253605 
-0.012428 -0.552471 0.989990 -176.959289 0.475764 83.489718 -0.906588 0.560042 3.255906 -4.472726 -7.814140 14.318333 2.919210 8.446619 -15.100941 0.000000 -0.000000 0.000000 2.076635 -3.086767 1.395730 1.024013 -4.970748 18.141446 0.818624 -9.753128 -15.968747 0.000000 -0.000000 0.000000 1.075704 0.438196 12.084480 1.344960 -0.978771 -0.726547 -0.200426 -0.909020 3.635045 2.693673 1.671187 7.088105 -3.187499 -1.811881 17.146840 -27.432406 3.455716 4.457068 -54.088737 -4.345372 7.231526 9.434604 -23.508701 4.011557 -3.778228 -3.531363 -6.701398 28.272612 3.836923 2.300829 54.305440 8.937965 13.760019 -14.160761 27.712023 -6.794414 2.870042 4.453380 -7.363344 
-0.006667 -0.550416 0.988657 -177.705633 0.498700 82.934357 -0.581042 0.391280 1.220975 -4.958658 -7.234396 19.760017 2.613746 8.164686 -15.068406 0.000000 -0.000000 0.000000 2.350256 -3.295869 2.127163 1.053311 -4.683367 18.139828 0.448372 -9.195512 -16.140700 0.000000 -0.000000 0.000000 1.130794 0.849981 12.795393 1.356953 -0.976427 -0.634416 -0.218551 -0.962502 3.892073 2.680180 1.717196 6.666134 -3.172189 -1.557225 17.160108 -27.350433 3.537695 4.263054 -54.277029 -4.326014 7.277975 8.827698 -24.596416 4.394865 -4.108895 -3.762498 -6.470101 28.284646 3.961671 2.280279 54.559336 8.961670 13.829538 -13.762002 28.139129 -6.197147 3.096850 4.617967 -7.241185 
-0.001094 -0.548703 0.988282 -178.528387 0.685274 82.450180 -0.015604 -0.111577 -1.778988 -5.618385 -5.971797 26.631724 1.425932 7.621902 -13.585210 0.000000 -0.000000 0.000000 2.794500 -3.389697 2.927798 1.344385 -4.088948 17.548412 -0.104267 -9.155398 -15.758928 0.000000 -0.000000 0.000000 1.118052 1.294437 13.481403 1.549840 -1.083258 -0.557994 -0.078017 -0.933917 3.971764 2.419462 1.660699 6.476713 -2.925919 -1.296154 17.578073 -27.749081 3.229451 4.289508 -54.405914 -4.438041 7.523553 8.841216 -25.127867 4.869295 -4.490889 -4.055280 -6.185510 28.493703 4.264742 2.675851 54.355267 9.140560 13.934398 -13.265761 27.816290 -5.507821 3.337493 4.735289 -7.045668 
0.003773 -0.546959 0.988687 -179.642079 0.683688 82.001342 0.956400 -0.765053 -5.466507 -6.721042 -3.843426 34.164334 -0.592741 6.451266 -10.198063 0.000000 -0.000000 0.000000 2.876970 -3.664229 3.572314 1.489098 -3.614612 17.374976 -0.822112 -8.097471 -15.549338 0.000000 -0.000000 0.000000 1.250074 1.637208 14.398176 1.594851 -1.246646 -0.779316 -0.228085 -0.599139 3.858431 1.806867 1.631875 6.944850 -2.447149 -1.108858 17.315692 -27.840021 3.160140 4.300017 -54.735574 -4.395441 7.754655 8.994660 -26.067731 5.076781 -4.825294 -4.160480 -6.765379 28.244591 4.290857 2.957750 54.894001 9.172050 13.912672 -12.625331 27.126299 -4.562786 3.350256 4.585796 -7.169094 
0.010240 -0.544425 0.989462 179.250549 0.240786 81.313924 2.559266 -1.952358 -10.192442 -8.586451 -0.680956 42.544172 -3.634123 4.675018 -3.395281 0.000000 -0.000000 0.000000 2.369199 -4.153150 4.974405 2.044560 -2.849854 16.328550 -2.217477 -7.426382 -15.436948 0.000000 -0.000000 0.000000 1.077824 2.969624 15.204551 1.656775 -1.567478 -0.196399 -0.274007 -0.713373 3.526908 1.972672 1.686681 7.491918 -1.731189 -0.258660 16.592489 -27.795489 2.725724 4.489259 -54.906863 -4.863010 8.135224 8.555749 -27.205744 6.057401 -4.844050 -4.023699 -6.912973 28.150926 4.145987 3.368264 55.398072 9.063378 13.852952 -12.140763 26.385147 -3.636620 3.653695 4.134320 -7.576879 
